<?xml version="1.0" encoding="UTF-8" standalone="no"?>
<svg
   xmlns="http://www.w3.org/2000/svg"
   id="svg8"
   version="1.1"
   viewBox="0 0 4.2333331 4.2333333"
   height="40"
   width="40">
  <defs
     id="defs2">
    <rect
       id="rect34"
       height="31.67712"
       width="20.24407"
       y="27.970238"
       x="19.654762" />
  </defs>
  <g
     transform="translate(-0.26458347,-0.26458348)"
     id="layer1">
    <path
       d="M 2.5893925,4.2216004 A 1.8520833,1.8520833 0 0 1 0.5545538,2.6868531 1.8520833,1.8520833 0 0 1 1.9790493,0.57336539 1.8520833,1.8520833 0 0 1 4.1652187,1.8835873 1.8520833,1.8520833 0 0 1 2.9729698,4.1362659"
       id="path30"
       style="fill:#000000;stroke-width:0.0162057" />
    <g
       style="font-style:normal;font-variant:normal;font-weight:normal;font-stretch:normal;font-size:10.5833px;line-height:1.25;font-family:'Ford Script';font-variant-ligatures:normal;font-variant-caps:normal;font-variant-numeric:normal;font-variant-east-asian:normal;white-space:pre;shape-inside:url(#rect34);fill:#ffffff;fill-opacity:1;stroke:none"
       id="text32"
       transform="matrix(0.26514282,0,0,0.29638937,-4.1503989,-7.8395394)">
      <path
         id="path97"
         style="fill:#ffffff"
         d="m 26.131276,34.058401 q 0,0.328082 0.296333,0.328082 0.126999,0 0.264582,-0.04233 0.148166,-0.04233 0.211666,-0.07408 0.116416,0.127 0.1905,0.1905 0.07408,0.05292 0.105833,0.137582 0.04233,0.07408 0.05292,0.22225 0.02117,0.148166 0.02117,0.455082 0,0.306915 -0.285749,0.857247 -0.275166,0.571498 -0.698498,0.99483 -0.423332,0.423332 -0.857248,0.423332 -0.264582,-0.04233 -0.264582,-0.529165 0,-0.190499 0.0635,-0.338666 0.0635,-0.148166 0.169333,-0.275165 0.05292,-0.07408 0.137582,-0.15875 0.08467,-0.08467 0.1905,-0.201083 0.105833,-0.116416 0.179916,-0.201082 0.08467,-0.09525 0.137583,-0.169333 -0.243416,0.05292 -0.455082,0.190499 -0.201083,0.127 -0.349249,0.317499 -0.148166,0.1905 -0.232833,0.423332 -0.08467,0.232833 -0.08467,0.486832 0,0.370416 0.211666,0.603248 0.222249,0.232833 0.645581,0.232833 0.423332,0.01058 0.783165,-0.116416 0.370415,-0.127 0.666747,-0.328083 0.296333,-0.201082 0.518582,-0.455082 0.232833,-0.253999 0.380999,-0.497415 0.158749,-0.243416 0.232832,-0.444498 0.08467,-0.211666 0.08467,-0.328083 -0.01058,-0.285749 -0.05292,-0.497415 -0.03175,-0.222249 -0.08467,-0.370415 -0.105833,-0.296333 -0.243416,-0.412749 -0.0635,-0.05292 -0.201083,-0.148166 -0.126999,-0.105833 -0.338665,-0.253999 0.338665,-0.127 0.634998,-0.296333 0.296332,-0.179916 0.507998,-0.402165 0.222249,-0.232833 0.349249,-0.507998 0.127,-0.275166 0.127,-0.613832 0,-0.634998 -0.349249,-0.973663 -0.359832,-0.338666 -0.592665,-0.433916 0,-0.04233 0.07408,-0.08467 0.07408,-0.04233 0.15875,-0.08467 0.08467,-0.04233 0.158749,-0.08467 0.07408,-0.04233 0.07408,-0.08467 0,0.01058 -0.02117,-0.05292 -0.08467,-0.03175 -0.169333,-0.03175 -0.306916,0 -0.772581,0.275166 -0.127,-0.01058 -0.306916,-0.02117 -0.179916,-0.01058 -0.423332,-0.03175 -0.476248,-0.03175 -0.761997,-0.03175 -1.460496,0 -2.508242,0.370415 -1.037164,0.370416 -1.640412,0.888997 -0.603248,0.518582 -0.888997,0.973664 -0.275166,0.455082 -0.275166,0.645581 0,1.24883 1.365246,1.24883 0.539748,-0.01058 0.89958,-0.137583 0.370416,-0.137583 0.624415,-0.370416 0.253999,-0.232832 0.423332,-0.571498 0.179916,-0.338666 0.338666,-0.772581 0.07408,-0.253999 0.07408,-0.592665 0,-0.253999 -0.03175,-0.476248 -0.02117,-0.232833 -0.04233,-0.328082 -0.05292,0.08467 -0.148167,0.275165 -0.09525,0.179917 -0.243415,0.486832 -0.148167,0.296333 -0.296333,0.560915 -0.137583,0.253999 -0.285749,0.476249 -0.285749,0.444498 -0.698498,0.77258 -0.412748,0.328083 -0.952497,0.328083 -0.264582,0 -0.455082,-0.201083 -0.179916,-0.211666 -0.179916,-0.539748 0.04233,-0.698498 0.677331,-1.28058 0.624415,-0.560914 1.566329,-0.93133 0.920747,-0.359832 1.820327,-0.455082 0.0635,-0.01058 0.169333,-0.01058 0.105833,-0.01058 0.253999,-0.01058 0.412749,0 0.772581,0.04233 0.359832,0.04233 0.529165,0.0635 -0.391582,0.275165 -0.772581,0.613831 -0.370415,0.328082 -0.80433,0.825497 -0.423332,0.486832 -0.846664,1.12183 -0.423332,0.624415 -0.867831,1.418162 -0.02117,0.05292 -0.105833,0.243416 -0.07408,0.179916 -0.222249,0.507999 -0.285749,0.656164 -0.529165,1.02658 -0.243416,0.370415 -0.624415,0.592664 -0.370415,0.211666 -0.973663,0.211666 -0.402166,0 -0.761998,-0.253999 -0.370416,-0.275166 -0.433915,-0.582081 0.201082,-0.02117 0.391582,-0.05292 0.190499,-0.04233 0.338665,-0.116416 0.148167,-0.07408 0.232833,-0.201083 0.08467,-0.126999 0.08467,-0.338665 -0.03175,-0.317499 -0.169332,-0.476249 -0.127,-0.158749 -0.455082,-0.158749 -0.09525,0 -0.254,0.08467 -0.158749,0.07408 -0.306915,0.201083 -0.137583,0.126999 -0.243416,0.296332 -0.105833,0.169333 -0.105833,0.359832 0,0.370416 0.148166,0.656165 0.15875,0.285749 0.412749,0.486832 0.253999,0.190499 0.582081,0.296332 0.338666,0.09525 0.698498,0.09525 1.650995,0 2.762241,-1.079497 1.111247,-1.09008 1.587495,-2.889241 0.370416,-0.96308 0.730248,-1.576911 0.359832,-0.613832 1.12183,-1.269996 0.253999,0.253999 0.380998,0.550331 0.127,0.296333 0.127,0.582082 0,0.211666 -0.07408,0.402165 -0.148166,0.380999 -0.264583,0.539749 -0.0635,0.08467 -0.169332,0.190499 -0.09525,0.09525 -0.243416,0.201083 -0.275166,0.211666 -0.296333,0.232832 -0.126999,-0.190499 -0.412748,-0.190499 -0.211666,0 -0.402166,0.116416 -0.190499,0.116416 -0.211666,0.317499 z" />
    </g>
  </g>
</svg>
